<svg width="37" height="33" viewBox="0 0 37 33" fill="none" xmlns="http://www.w3.org/2000/svg">
<path d="M28.4206 24.3624L23.1956 19.1374L26.1643 16.1687L28.4206 18.4249L34.0018 12.8041L36.9706 15.7728L28.4206 24.3624ZM17.4164 32.6749L14.4872 29.9833C11.5845 27.318 9.21606 25.0551 7.38203 23.1947C5.548 21.3343 4.10321 19.6916 3.04766 18.2666C1.9921 16.8416 1.273 15.5287 0.890365 14.328C0.507726 13.1273 0.316406 11.8805 0.316406 10.5874C0.316406 7.81659 1.26641 5.48777 3.16641 3.60096C5.06641 1.71415 7.41502 0.770752 10.2122 0.770752C11.4789 0.770752 12.7456 1.02804 14.0122 1.54263C15.2789 2.05721 16.4136 2.77631 17.4164 3.69992C18.4192 2.77631 19.5539 2.05721 20.8206 1.54263C22.0872 1.02804 23.3539 0.770752 24.6206 0.770752C27.0747 0.770752 29.1924 1.50304 30.9737 2.96763C32.755 4.43221 33.8699 6.29922 34.3185 8.56867H29.9643C29.5685 7.46034 28.8956 6.5829 27.9456 5.93638C26.9956 5.28985 25.8872 4.96659 24.6206 4.96659C23.4331 4.96659 22.2984 5.32283 21.2164 6.03534C20.1345 6.74784 19.5275 7.52631 19.3956 8.37075H15.4372C15.3053 7.52631 14.6984 6.74784 13.6164 6.03534C12.5345 5.32283 11.3997 4.96659 10.2122 4.96659C8.54974 4.96659 7.18411 5.50096 6.11537 6.56971C5.04662 7.63846 4.51224 8.9777 4.51224 10.5874C4.51224 11.5374 4.69696 12.4808 5.06641 13.4176C5.43585 14.3544 6.10877 15.4364 7.08516 16.6635C8.06155 17.8905 9.38099 19.3287 11.0435 20.978C12.706 22.6273 14.8303 24.6263 17.4164 26.9749C18.0234 26.4471 18.5973 25.926 19.1383 25.4114C19.6793 24.8968 20.2004 24.4152 20.7018 23.9666L21.157 24.4218C21.4605 24.7253 21.8036 25.0617 22.1862 25.4312C22.5688 25.8006 22.9119 26.1371 23.2154 26.4405L23.6706 26.8958C23.1428 27.3708 22.6084 27.8655 22.0674 28.3801C21.5265 28.8947 20.9525 29.4291 20.3456 29.9833L17.4164 32.6749Z" fill="#262626"/>
</svg>
