<svg width="36" height="33" viewBox="0 0 36 33" fill="none" xmlns="http://www.w3.org/2000/svg">
<path d="M17.9999 32.6749L15.0707 29.9833C12.168 27.318 9.79956 25.0551 7.96553 23.1947C6.1315 21.3343 4.68671 19.6916 3.63115 18.2666C2.5756 16.8416 1.8565 15.5287 1.47386 14.328C1.09122 13.1273 0.899902 11.8805 0.899902 10.5874C0.899902 7.81659 1.8499 5.48777 3.7499 3.60096C5.6499 1.71415 7.99851 0.770752 10.7957 0.770752C12.0624 0.770752 13.3291 1.02804 14.5957 1.54263C15.8624 2.05721 16.9971 2.77631 17.9999 3.69992C19.0027 2.77631 20.1374 2.05721 21.4041 1.54263C22.6707 1.02804 23.9374 0.770752 25.2041 0.770752C28.0013 0.770752 30.3499 1.71415 32.2499 3.60096C34.1499 5.48777 35.0999 7.81659 35.0999 10.5874C35.0999 11.8805 34.9086 13.1273 34.5259 14.328C34.1433 15.5287 33.4242 16.8416 32.3687 18.2666C31.3131 19.6916 29.8683 21.3343 28.0343 23.1947C26.2003 25.0551 23.8318 27.318 20.9291 29.9833L17.9999 32.6749ZM17.9999 26.9749C20.586 24.6263 22.7103 22.6273 24.3728 20.978C26.0353 19.3287 27.3548 17.8905 28.3312 16.6635C29.3075 15.4364 29.9805 14.3544 30.3499 13.4176C30.7193 12.4808 30.9041 11.5374 30.9041 10.5874C30.9041 8.9777 30.3697 7.63846 29.3009 6.56971C28.2322 5.50096 26.8666 4.96659 25.2041 4.96659C24.0166 4.96659 22.8818 5.32283 21.7999 6.03534C20.718 6.74784 20.111 7.52631 19.9791 8.37075H16.0207C15.8888 7.52631 15.2818 6.74784 14.1999 6.03534C13.118 5.32283 11.9832 4.96659 10.7957 4.96659C9.13324 4.96659 7.76761 5.50096 6.69886 6.56971C5.63011 7.63846 5.09574 8.9777 5.09574 10.5874C5.09574 11.5374 5.28046 12.4808 5.6499 13.4176C6.01935 14.3544 6.69226 15.4364 7.66865 16.6635C8.64504 17.8905 9.96449 19.3287 11.627 20.978C13.2895 22.6273 15.4138 24.6263 17.9999 26.9749Z" fill="#1C1B1F"/>
</svg>
